<mxfile host="app.diagrams.net" modified="2023-08-31T22:27:40.599Z" agent="Mozilla/5.0 (Windows NT 10.0; Win64; x64) AppleWebKit/537.36 (KHTML, like Gecko) Chrome/116.0.0.0 Safari/537.36" etag="4zeovk9UWABi4utbbfSY" version="21.7.1" type="github">
  <diagram name="Página-1" id="zRZEZzBakJOeWsGbwAF0">
    <mxGraphModel dx="2421" dy="714" grid="1" gridSize="10" guides="1" tooltips="1" connect="1" arrows="1" fold="1" page="1" pageScale="1" pageWidth="827" pageHeight="1169" math="0" shadow="0">
      <root>
        <mxCell id="0" />
        <mxCell id="1" parent="0" />
        <mxCell id="LJSA0B60iwPBgxlD1cPa-2" value="Hospital" style="whiteSpace=wrap;html=1;align=center;" vertex="1" parent="1">
          <mxGeometry x="175" y="350" width="100" height="40" as="geometry" />
        </mxCell>
        <mxCell id="LJSA0B60iwPBgxlD1cPa-5" value="Local" style="ellipse;whiteSpace=wrap;html=1;align=center;fontStyle=4;" vertex="1" parent="1">
          <mxGeometry x="25" y="290" width="100" height="40" as="geometry" />
        </mxCell>
        <mxCell id="LJSA0B60iwPBgxlD1cPa-9" value="" style="endArrow=none;html=1;rounded=0;exitX=1;exitY=0.5;exitDx=0;exitDy=0;entryX=0;entryY=0.5;entryDx=0;entryDy=0;" edge="1" parent="1" source="LJSA0B60iwPBgxlD1cPa-5" target="LJSA0B60iwPBgxlD1cPa-2">
          <mxGeometry relative="1" as="geometry">
            <mxPoint x="315" y="570" as="sourcePoint" />
            <mxPoint x="475" y="570" as="targetPoint" />
          </mxGeometry>
        </mxCell>
        <mxCell id="LJSA0B60iwPBgxlD1cPa-10" value="Ala" style="whiteSpace=wrap;html=1;align=center;" vertex="1" parent="1">
          <mxGeometry x="175" y="530" width="100" height="40" as="geometry" />
        </mxCell>
        <mxCell id="LJSA0B60iwPBgxlD1cPa-11" value="ID" style="ellipse;whiteSpace=wrap;html=1;align=center;fontStyle=4;" vertex="1" parent="1">
          <mxGeometry x="15" y="500" width="100" height="40" as="geometry" />
        </mxCell>
        <mxCell id="LJSA0B60iwPBgxlD1cPa-12" value="" style="endArrow=none;html=1;rounded=0;exitX=1;exitY=0.5;exitDx=0;exitDy=0;entryX=0;entryY=0.5;entryDx=0;entryDy=0;" edge="1" parent="1" source="LJSA0B60iwPBgxlD1cPa-11" target="LJSA0B60iwPBgxlD1cPa-10">
          <mxGeometry relative="1" as="geometry">
            <mxPoint x="315" y="570" as="sourcePoint" />
            <mxPoint x="475" y="570" as="targetPoint" />
          </mxGeometry>
        </mxCell>
        <mxCell id="LJSA0B60iwPBgxlD1cPa-14" value="Possui" style="shape=rhombus;perimeter=rhombusPerimeter;whiteSpace=wrap;html=1;align=center;" vertex="1" parent="1">
          <mxGeometry x="165" y="430" width="120" height="60" as="geometry" />
        </mxCell>
        <mxCell id="LJSA0B60iwPBgxlD1cPa-16" value="Enfermeiro" style="whiteSpace=wrap;html=1;align=center;" vertex="1" parent="1">
          <mxGeometry x="455" y="530" width="100" height="40" as="geometry" />
        </mxCell>
        <mxCell id="LJSA0B60iwPBgxlD1cPa-17" value="Coordena" style="shape=rhombus;perimeter=rhombusPerimeter;whiteSpace=wrap;html=1;align=center;" vertex="1" parent="1">
          <mxGeometry x="305" y="520" width="120" height="60" as="geometry" />
        </mxCell>
        <mxCell id="LJSA0B60iwPBgxlD1cPa-20" value="Trabalha-no" style="shape=rhombus;perimeter=rhombusPerimeter;whiteSpace=wrap;html=1;align=center;" vertex="1" parent="1">
          <mxGeometry x="335" y="430" width="120" height="60" as="geometry" />
        </mxCell>
        <mxCell id="LJSA0B60iwPBgxlD1cPa-25" value="Nome" style="ellipse;whiteSpace=wrap;html=1;align=center;" vertex="1" parent="1">
          <mxGeometry x="605" y="530" width="100" height="40" as="geometry" />
        </mxCell>
        <mxCell id="LJSA0B60iwPBgxlD1cPa-26" value="" style="endArrow=none;html=1;rounded=0;" edge="1" parent="1" source="LJSA0B60iwPBgxlD1cPa-16" target="LJSA0B60iwPBgxlD1cPa-25">
          <mxGeometry relative="1" as="geometry">
            <mxPoint x="275" y="550" as="sourcePoint" />
            <mxPoint x="435" y="550" as="targetPoint" />
          </mxGeometry>
        </mxCell>
        <mxCell id="LJSA0B60iwPBgxlD1cPa-27" value="CRE" style="ellipse;whiteSpace=wrap;html=1;align=center;fontStyle=4;" vertex="1" parent="1">
          <mxGeometry x="555" y="600" width="100" height="40" as="geometry" />
        </mxCell>
        <mxCell id="LJSA0B60iwPBgxlD1cPa-28" value="" style="endArrow=none;html=1;rounded=0;exitX=1;exitY=1;exitDx=0;exitDy=0;" edge="1" parent="1" source="LJSA0B60iwPBgxlD1cPa-16" target="LJSA0B60iwPBgxlD1cPa-27">
          <mxGeometry relative="1" as="geometry">
            <mxPoint x="415" y="540" as="sourcePoint" />
            <mxPoint x="575" y="540" as="targetPoint" />
          </mxGeometry>
        </mxCell>
        <mxCell id="LJSA0B60iwPBgxlD1cPa-29" value="Reporta-a" style="shape=rhombus;perimeter=rhombusPerimeter;whiteSpace=wrap;html=1;align=center;" vertex="1" parent="1">
          <mxGeometry x="435" y="650" width="120" height="60" as="geometry" />
        </mxCell>
        <mxCell id="LJSA0B60iwPBgxlD1cPa-36" value="" style="endArrow=none;html=1;rounded=0;exitX=0.5;exitY=1;exitDx=0;exitDy=0;entryX=0.5;entryY=0;entryDx=0;entryDy=0;" edge="1" parent="1" source="LJSA0B60iwPBgxlD1cPa-2" target="LJSA0B60iwPBgxlD1cPa-14">
          <mxGeometry relative="1" as="geometry">
            <mxPoint x="195" y="480" as="sourcePoint" />
            <mxPoint x="355" y="480" as="targetPoint" />
          </mxGeometry>
        </mxCell>
        <mxCell id="LJSA0B60iwPBgxlD1cPa-37" value="1" style="resizable=0;html=1;whiteSpace=wrap;align=right;verticalAlign=bottom;" connectable="0" vertex="1" parent="LJSA0B60iwPBgxlD1cPa-36">
          <mxGeometry x="1" relative="1" as="geometry" />
        </mxCell>
        <mxCell id="LJSA0B60iwPBgxlD1cPa-38" value="" style="endArrow=none;html=1;rounded=0;entryX=0.5;entryY=1;entryDx=0;entryDy=0;exitX=0.5;exitY=0;exitDx=0;exitDy=0;" edge="1" parent="1" source="LJSA0B60iwPBgxlD1cPa-10" target="LJSA0B60iwPBgxlD1cPa-14">
          <mxGeometry relative="1" as="geometry">
            <mxPoint x="195" y="480" as="sourcePoint" />
            <mxPoint x="355" y="480" as="targetPoint" />
          </mxGeometry>
        </mxCell>
        <mxCell id="LJSA0B60iwPBgxlD1cPa-39" value="N" style="resizable=0;html=1;whiteSpace=wrap;align=right;verticalAlign=bottom;" connectable="0" vertex="1" parent="LJSA0B60iwPBgxlD1cPa-38">
          <mxGeometry x="1" relative="1" as="geometry">
            <mxPoint y="20" as="offset" />
          </mxGeometry>
        </mxCell>
        <mxCell id="LJSA0B60iwPBgxlD1cPa-40" value="" style="endArrow=none;html=1;rounded=0;exitX=1;exitY=0.5;exitDx=0;exitDy=0;entryX=0;entryY=0.5;entryDx=0;entryDy=0;" edge="1" parent="1" source="LJSA0B60iwPBgxlD1cPa-10" target="LJSA0B60iwPBgxlD1cPa-17">
          <mxGeometry relative="1" as="geometry">
            <mxPoint x="235" y="400" as="sourcePoint" />
            <mxPoint x="235" y="440" as="targetPoint" />
          </mxGeometry>
        </mxCell>
        <mxCell id="LJSA0B60iwPBgxlD1cPa-41" value="1" style="resizable=0;html=1;whiteSpace=wrap;align=right;verticalAlign=bottom;" connectable="0" vertex="1" parent="LJSA0B60iwPBgxlD1cPa-40">
          <mxGeometry x="1" relative="1" as="geometry" />
        </mxCell>
        <mxCell id="LJSA0B60iwPBgxlD1cPa-42" value="" style="endArrow=none;html=1;rounded=0;exitX=0;exitY=0.5;exitDx=0;exitDy=0;entryX=1;entryY=0.5;entryDx=0;entryDy=0;" edge="1" parent="1" source="LJSA0B60iwPBgxlD1cPa-16" target="LJSA0B60iwPBgxlD1cPa-17">
          <mxGeometry relative="1" as="geometry">
            <mxPoint x="245" y="410" as="sourcePoint" />
            <mxPoint x="245" y="450" as="targetPoint" />
          </mxGeometry>
        </mxCell>
        <mxCell id="LJSA0B60iwPBgxlD1cPa-43" value="1" style="resizable=0;html=1;whiteSpace=wrap;align=right;verticalAlign=bottom;" connectable="0" vertex="1" parent="LJSA0B60iwPBgxlD1cPa-42">
          <mxGeometry x="1" relative="1" as="geometry" />
        </mxCell>
        <mxCell id="LJSA0B60iwPBgxlD1cPa-44" value="" style="endArrow=none;html=1;rounded=0;exitX=0.25;exitY=1;exitDx=0;exitDy=0;entryX=0;entryY=0.5;entryDx=0;entryDy=0;" edge="1" parent="1" source="LJSA0B60iwPBgxlD1cPa-16" target="LJSA0B60iwPBgxlD1cPa-29">
          <mxGeometry relative="1" as="geometry">
            <mxPoint x="255" y="420" as="sourcePoint" />
            <mxPoint x="255" y="460" as="targetPoint" />
          </mxGeometry>
        </mxCell>
        <mxCell id="LJSA0B60iwPBgxlD1cPa-45" value="1" style="resizable=0;html=1;whiteSpace=wrap;align=right;verticalAlign=bottom;" connectable="0" vertex="1" parent="LJSA0B60iwPBgxlD1cPa-44">
          <mxGeometry x="1" relative="1" as="geometry" />
        </mxCell>
        <mxCell id="LJSA0B60iwPBgxlD1cPa-46" value="" style="endArrow=none;html=1;rounded=0;exitX=0.75;exitY=1;exitDx=0;exitDy=0;entryX=1;entryY=0.5;entryDx=0;entryDy=0;" edge="1" parent="1" source="LJSA0B60iwPBgxlD1cPa-16" target="LJSA0B60iwPBgxlD1cPa-29">
          <mxGeometry relative="1" as="geometry">
            <mxPoint x="265" y="430" as="sourcePoint" />
            <mxPoint x="265" y="470" as="targetPoint" />
          </mxGeometry>
        </mxCell>
        <mxCell id="LJSA0B60iwPBgxlD1cPa-47" value="1" style="resizable=0;html=1;whiteSpace=wrap;align=right;verticalAlign=bottom;" connectable="0" vertex="1" parent="LJSA0B60iwPBgxlD1cPa-46">
          <mxGeometry x="1" relative="1" as="geometry">
            <mxPoint x="10" as="offset" />
          </mxGeometry>
        </mxCell>
        <mxCell id="LJSA0B60iwPBgxlD1cPa-48" value="Médico" style="whiteSpace=wrap;html=1;align=center;" vertex="1" parent="1">
          <mxGeometry x="495" y="290" width="100" height="40" as="geometry" />
        </mxCell>
        <mxCell id="LJSA0B60iwPBgxlD1cPa-49" value="Trabalha-para" style="shape=rhombus;perimeter=rhombusPerimeter;whiteSpace=wrap;html=1;align=center;" vertex="1" parent="1">
          <mxGeometry x="335" y="310" width="120" height="60" as="geometry" />
        </mxCell>
        <mxCell id="LJSA0B60iwPBgxlD1cPa-51" value="" style="endArrow=none;html=1;rounded=0;exitX=1;exitY=0.5;exitDx=0;exitDy=0;entryX=0;entryY=0.5;entryDx=0;entryDy=0;" edge="1" parent="1" source="LJSA0B60iwPBgxlD1cPa-2" target="LJSA0B60iwPBgxlD1cPa-49">
          <mxGeometry relative="1" as="geometry">
            <mxPoint x="275" y="440" as="sourcePoint" />
            <mxPoint x="275" y="480" as="targetPoint" />
          </mxGeometry>
        </mxCell>
        <mxCell id="LJSA0B60iwPBgxlD1cPa-52" value="1" style="resizable=0;html=1;whiteSpace=wrap;align=right;verticalAlign=bottom;" connectable="0" vertex="1" parent="LJSA0B60iwPBgxlD1cPa-51">
          <mxGeometry x="1" relative="1" as="geometry" />
        </mxCell>
        <mxCell id="LJSA0B60iwPBgxlD1cPa-53" value="" style="endArrow=none;html=1;rounded=0;exitX=0;exitY=0.5;exitDx=0;exitDy=0;entryX=1;entryY=0.5;entryDx=0;entryDy=0;" edge="1" parent="1" source="LJSA0B60iwPBgxlD1cPa-48" target="LJSA0B60iwPBgxlD1cPa-49">
          <mxGeometry relative="1" as="geometry">
            <mxPoint x="285" y="450" as="sourcePoint" />
            <mxPoint x="285" y="490" as="targetPoint" />
          </mxGeometry>
        </mxCell>
        <mxCell id="LJSA0B60iwPBgxlD1cPa-54" value="1" style="resizable=0;html=1;whiteSpace=wrap;align=right;verticalAlign=bottom;" connectable="0" vertex="1" parent="LJSA0B60iwPBgxlD1cPa-53">
          <mxGeometry x="1" relative="1" as="geometry">
            <mxPoint y="-10" as="offset" />
          </mxGeometry>
        </mxCell>
        <mxCell id="LJSA0B60iwPBgxlD1cPa-55" value="" style="endArrow=none;html=1;rounded=0;exitX=1;exitY=0.5;exitDx=0;exitDy=0;entryX=0;entryY=0.5;entryDx=0;entryDy=0;" edge="1" parent="1" source="LJSA0B60iwPBgxlD1cPa-2" target="LJSA0B60iwPBgxlD1cPa-20">
          <mxGeometry relative="1" as="geometry">
            <mxPoint x="295" y="460" as="sourcePoint" />
            <mxPoint x="295" y="500" as="targetPoint" />
          </mxGeometry>
        </mxCell>
        <mxCell id="LJSA0B60iwPBgxlD1cPa-56" value="1" style="resizable=0;html=1;whiteSpace=wrap;align=right;verticalAlign=bottom;" connectable="0" vertex="1" parent="LJSA0B60iwPBgxlD1cPa-55">
          <mxGeometry x="1" relative="1" as="geometry">
            <mxPoint x="10" y="-10" as="offset" />
          </mxGeometry>
        </mxCell>
        <mxCell id="LJSA0B60iwPBgxlD1cPa-57" value="" style="endArrow=none;html=1;rounded=0;exitX=1;exitY=0.5;exitDx=0;exitDy=0;entryX=0.5;entryY=0;entryDx=0;entryDy=0;" edge="1" parent="1" source="LJSA0B60iwPBgxlD1cPa-20" target="LJSA0B60iwPBgxlD1cPa-16">
          <mxGeometry relative="1" as="geometry">
            <mxPoint x="305" y="470" as="sourcePoint" />
            <mxPoint x="305" y="510" as="targetPoint" />
          </mxGeometry>
        </mxCell>
        <mxCell id="LJSA0B60iwPBgxlD1cPa-58" value="1" style="resizable=0;html=1;whiteSpace=wrap;align=right;verticalAlign=bottom;" connectable="0" vertex="1" parent="LJSA0B60iwPBgxlD1cPa-57">
          <mxGeometry x="1" relative="1" as="geometry">
            <mxPoint x="-30" y="-60" as="offset" />
          </mxGeometry>
        </mxCell>
        <mxCell id="LJSA0B60iwPBgxlD1cPa-59" value="Filiado-com" style="shape=rhombus;perimeter=rhombusPerimeter;whiteSpace=wrap;html=1;align=center;" vertex="1" parent="1">
          <mxGeometry x="625" y="330" width="120" height="60" as="geometry" />
        </mxCell>
        <mxCell id="LJSA0B60iwPBgxlD1cPa-60" value="Plano de saúde" style="whiteSpace=wrap;html=1;align=center;" vertex="1" parent="1">
          <mxGeometry x="712" y="420" width="100" height="40" as="geometry" />
        </mxCell>
        <mxCell id="LJSA0B60iwPBgxlD1cPa-61" value="" style="endArrow=none;html=1;rounded=0;exitX=1;exitY=0.5;exitDx=0;exitDy=0;entryX=0.5;entryY=0;entryDx=0;entryDy=0;" edge="1" parent="1" source="LJSA0B60iwPBgxlD1cPa-48" target="LJSA0B60iwPBgxlD1cPa-59">
          <mxGeometry relative="1" as="geometry">
            <mxPoint x="555" y="423.5" as="sourcePoint" />
            <mxPoint x="665" y="496.5" as="targetPoint" />
          </mxGeometry>
        </mxCell>
        <mxCell id="LJSA0B60iwPBgxlD1cPa-62" value="1" style="resizable=0;html=1;whiteSpace=wrap;align=right;verticalAlign=bottom;" connectable="0" vertex="1" parent="LJSA0B60iwPBgxlD1cPa-61">
          <mxGeometry x="1" relative="1" as="geometry">
            <mxPoint x="12" y="-10" as="offset" />
          </mxGeometry>
        </mxCell>
        <mxCell id="LJSA0B60iwPBgxlD1cPa-63" value="" style="endArrow=none;html=1;rounded=0;entryX=1;entryY=0.5;entryDx=0;entryDy=0;exitX=0.5;exitY=0;exitDx=0;exitDy=0;" edge="1" parent="1" source="LJSA0B60iwPBgxlD1cPa-60" target="LJSA0B60iwPBgxlD1cPa-59">
          <mxGeometry relative="1" as="geometry">
            <mxPoint x="605" y="490" as="sourcePoint" />
            <mxPoint x="765" y="490" as="targetPoint" />
          </mxGeometry>
        </mxCell>
        <mxCell id="LJSA0B60iwPBgxlD1cPa-64" value="N" style="resizable=0;html=1;whiteSpace=wrap;align=right;verticalAlign=bottom;" connectable="0" vertex="1" parent="LJSA0B60iwPBgxlD1cPa-63">
          <mxGeometry x="1" relative="1" as="geometry" />
        </mxCell>
        <mxCell id="LJSA0B60iwPBgxlD1cPa-66" value="" style="endArrow=none;html=1;rounded=0;exitX=0.432;exitY=0.99;exitDx=0;exitDy=0;exitPerimeter=0;entryX=0.5;entryY=0;entryDx=0;entryDy=0;" edge="1" parent="1" target="LJSA0B60iwPBgxlD1cPa-67" source="LJSA0B60iwPBgxlD1cPa-60">
          <mxGeometry relative="1" as="geometry">
            <mxPoint x="625" y="540" as="sourcePoint" />
            <mxPoint x="755" y="490" as="targetPoint" />
          </mxGeometry>
        </mxCell>
        <mxCell id="LJSA0B60iwPBgxlD1cPa-67" value="Nome" style="ellipse;whiteSpace=wrap;html=1;align=center;fontStyle=4;" vertex="1" parent="1">
          <mxGeometry x="705" y="490" width="100" height="40" as="geometry" />
        </mxCell>
        <mxCell id="LJSA0B60iwPBgxlD1cPa-70" value="" style="endArrow=none;html=1;rounded=0;entryX=0;entryY=0.5;entryDx=0;entryDy=0;exitX=1;exitY=0.5;exitDx=0;exitDy=0;" edge="1" parent="1" source="LJSA0B60iwPBgxlD1cPa-71" target="LJSA0B60iwPBgxlD1cPa-60">
          <mxGeometry relative="1" as="geometry">
            <mxPoint x="685" y="469.9999999999999" as="sourcePoint" />
            <mxPoint x="635" y="470" as="targetPoint" />
          </mxGeometry>
        </mxCell>
        <mxCell id="LJSA0B60iwPBgxlD1cPa-71" value="Telefone" style="ellipse;shape=doubleEllipse;margin=3;whiteSpace=wrap;html=1;align=center;" vertex="1" parent="1">
          <mxGeometry x="585" y="450" width="100" height="40" as="geometry" />
        </mxCell>
        <mxCell id="LJSA0B60iwPBgxlD1cPa-72" value="&lt;span style=&quot;border-bottom: 1px dotted&quot;&gt;CRM&lt;br&gt;&lt;/span&gt;" style="ellipse;whiteSpace=wrap;html=1;align=center;" vertex="1" parent="1">
          <mxGeometry x="495" y="370" width="100" height="40" as="geometry" />
        </mxCell>
        <mxCell id="LJSA0B60iwPBgxlD1cPa-74" value="" style="endArrow=none;html=1;rounded=0;entryX=0.5;entryY=1;entryDx=0;entryDy=0;exitX=0.5;exitY=0;exitDx=0;exitDy=0;" edge="1" parent="1" source="LJSA0B60iwPBgxlD1cPa-72" target="LJSA0B60iwPBgxlD1cPa-48">
          <mxGeometry relative="1" as="geometry">
            <mxPoint x="455" y="470" as="sourcePoint" />
            <mxPoint x="615" y="470" as="targetPoint" />
          </mxGeometry>
        </mxCell>
        <mxCell id="LJSA0B60iwPBgxlD1cPa-75" value="Nome" style="ellipse;whiteSpace=wrap;html=1;align=center;" vertex="1" parent="1">
          <mxGeometry x="435" y="210" width="100" height="40" as="geometry" />
        </mxCell>
        <mxCell id="LJSA0B60iwPBgxlD1cPa-76" value="" style="endArrow=none;html=1;rounded=0;exitX=0.5;exitY=1;exitDx=0;exitDy=0;entryX=0.412;entryY=0.013;entryDx=0;entryDy=0;entryPerimeter=0;" edge="1" parent="1" source="LJSA0B60iwPBgxlD1cPa-75" target="LJSA0B60iwPBgxlD1cPa-48">
          <mxGeometry relative="1" as="geometry">
            <mxPoint x="455" y="470" as="sourcePoint" />
            <mxPoint x="615" y="470" as="targetPoint" />
          </mxGeometry>
        </mxCell>
        <mxCell id="LJSA0B60iwPBgxlD1cPa-77" value="Especialidade" style="ellipse;whiteSpace=wrap;html=1;align=center;" vertex="1" parent="1">
          <mxGeometry x="565" y="210" width="100" height="40" as="geometry" />
        </mxCell>
        <mxCell id="LJSA0B60iwPBgxlD1cPa-78" value="" style="endArrow=none;html=1;rounded=0;entryX=0.5;entryY=1;entryDx=0;entryDy=0;exitX=0.75;exitY=0;exitDx=0;exitDy=0;" edge="1" parent="1" source="LJSA0B60iwPBgxlD1cPa-48" target="LJSA0B60iwPBgxlD1cPa-77">
          <mxGeometry relative="1" as="geometry">
            <mxPoint x="455" y="470" as="sourcePoint" />
            <mxPoint x="615" y="470" as="targetPoint" />
          </mxGeometry>
        </mxCell>
        <mxCell id="LJSA0B60iwPBgxlD1cPa-79" value="Atende" style="shape=rhombus;perimeter=rhombusPerimeter;whiteSpace=wrap;html=1;align=center;" vertex="1" parent="1">
          <mxGeometry x="285" y="210" width="120" height="60" as="geometry" />
        </mxCell>
        <mxCell id="LJSA0B60iwPBgxlD1cPa-80" value="" style="endArrow=none;html=1;rounded=0;entryX=0;entryY=0.25;entryDx=0;entryDy=0;exitX=1;exitY=0.5;exitDx=0;exitDy=0;" edge="1" parent="1" source="LJSA0B60iwPBgxlD1cPa-79" target="LJSA0B60iwPBgxlD1cPa-48">
          <mxGeometry relative="1" as="geometry">
            <mxPoint x="320" y="340" as="sourcePoint" />
            <mxPoint x="480" y="340" as="targetPoint" />
          </mxGeometry>
        </mxCell>
        <mxCell id="LJSA0B60iwPBgxlD1cPa-81" value="N" style="resizable=0;html=1;whiteSpace=wrap;align=right;verticalAlign=bottom;" connectable="0" vertex="1" parent="LJSA0B60iwPBgxlD1cPa-80">
          <mxGeometry x="1" relative="1" as="geometry">
            <mxPoint x="-81" y="-40" as="offset" />
          </mxGeometry>
        </mxCell>
        <mxCell id="LJSA0B60iwPBgxlD1cPa-85" value="Paciente" style="whiteSpace=wrap;html=1;align=center;" vertex="1" parent="1">
          <mxGeometry x="125" y="180" width="100" height="40" as="geometry" />
        </mxCell>
        <mxCell id="LJSA0B60iwPBgxlD1cPa-92" value="" style="endArrow=none;html=1;rounded=0;entryX=1;entryY=0.5;entryDx=0;entryDy=0;exitX=0;exitY=0.5;exitDx=0;exitDy=0;" edge="1" parent="1" source="LJSA0B60iwPBgxlD1cPa-79" target="LJSA0B60iwPBgxlD1cPa-85">
          <mxGeometry relative="1" as="geometry">
            <mxPoint x="350" y="380" as="sourcePoint" />
            <mxPoint x="510" y="380" as="targetPoint" />
          </mxGeometry>
        </mxCell>
        <mxCell id="LJSA0B60iwPBgxlD1cPa-93" value="M" style="resizable=0;html=1;whiteSpace=wrap;align=right;verticalAlign=bottom;" connectable="0" vertex="1" parent="LJSA0B60iwPBgxlD1cPa-92">
          <mxGeometry x="1" relative="1" as="geometry">
            <mxPoint x="60" y="30" as="offset" />
          </mxGeometry>
        </mxCell>
        <mxCell id="LJSA0B60iwPBgxlD1cPa-94" value="Data" style="ellipse;whiteSpace=wrap;html=1;align=center;" vertex="1" parent="1">
          <mxGeometry x="260" y="140" width="100" height="40" as="geometry" />
        </mxCell>
        <mxCell id="LJSA0B60iwPBgxlD1cPa-95" value="Hora" style="ellipse;whiteSpace=wrap;html=1;align=center;" vertex="1" parent="1">
          <mxGeometry x="395" y="140" width="100" height="40" as="geometry" />
        </mxCell>
        <mxCell id="LJSA0B60iwPBgxlD1cPa-97" value="" style="endArrow=none;html=1;rounded=0;entryX=0.5;entryY=1;entryDx=0;entryDy=0;" edge="1" parent="1" source="LJSA0B60iwPBgxlD1cPa-79" target="LJSA0B60iwPBgxlD1cPa-95">
          <mxGeometry relative="1" as="geometry">
            <mxPoint x="280" y="270" as="sourcePoint" />
            <mxPoint x="440" y="270" as="targetPoint" />
          </mxGeometry>
        </mxCell>
        <mxCell id="LJSA0B60iwPBgxlD1cPa-98" value="" style="endArrow=none;html=1;rounded=0;exitX=0.5;exitY=1;exitDx=0;exitDy=0;entryX=0;entryY=0;entryDx=0;entryDy=0;" edge="1" parent="1" source="LJSA0B60iwPBgxlD1cPa-94" target="LJSA0B60iwPBgxlD1cPa-79">
          <mxGeometry relative="1" as="geometry">
            <mxPoint x="280" y="270" as="sourcePoint" />
            <mxPoint x="310" y="200" as="targetPoint" />
          </mxGeometry>
        </mxCell>
        <mxCell id="LJSA0B60iwPBgxlD1cPa-99" value="CPF" style="ellipse;whiteSpace=wrap;html=1;align=center;fontStyle=4;" vertex="1" parent="1">
          <mxGeometry x="150" y="90" width="100" height="40" as="geometry" />
        </mxCell>
        <mxCell id="LJSA0B60iwPBgxlD1cPa-100" value="" style="endArrow=none;html=1;rounded=0;entryX=0.5;entryY=1;entryDx=0;entryDy=0;exitX=0.5;exitY=0;exitDx=0;exitDy=0;" edge="1" parent="1" source="LJSA0B60iwPBgxlD1cPa-85" target="LJSA0B60iwPBgxlD1cPa-99">
          <mxGeometry relative="1" as="geometry">
            <mxPoint x="40" y="170" as="sourcePoint" />
            <mxPoint x="200" y="170" as="targetPoint" />
          </mxGeometry>
        </mxCell>
        <mxCell id="LJSA0B60iwPBgxlD1cPa-101" value="Nome" style="ellipse;whiteSpace=wrap;html=1;align=center;" vertex="1" parent="1">
          <mxGeometry x="40" y="110" width="100" height="40" as="geometry" />
        </mxCell>
        <mxCell id="LJSA0B60iwPBgxlD1cPa-103" value="Telefone" style="ellipse;shape=doubleEllipse;margin=3;whiteSpace=wrap;html=1;align=center;" vertex="1" parent="1">
          <mxGeometry x="15" y="230" width="100" height="40" as="geometry" />
        </mxCell>
        <mxCell id="LJSA0B60iwPBgxlD1cPa-104" value="Endereço" style="ellipse;whiteSpace=wrap;html=1;align=center;" vertex="1" parent="1">
          <mxGeometry x="-10" y="170" width="100" height="40" as="geometry" />
        </mxCell>
        <mxCell id="LJSA0B60iwPBgxlD1cPa-105" value="" style="endArrow=none;html=1;rounded=0;exitX=1;exitY=0.5;exitDx=0;exitDy=0;entryX=0;entryY=0.5;entryDx=0;entryDy=0;" edge="1" parent="1" source="LJSA0B60iwPBgxlD1cPa-104" target="LJSA0B60iwPBgxlD1cPa-85">
          <mxGeometry relative="1" as="geometry">
            <mxPoint x="30" y="170" as="sourcePoint" />
            <mxPoint x="190" y="170" as="targetPoint" />
          </mxGeometry>
        </mxCell>
        <mxCell id="LJSA0B60iwPBgxlD1cPa-106" value="" style="endArrow=none;html=1;rounded=0;exitX=1;exitY=0.5;exitDx=0;exitDy=0;entryX=0.5;entryY=1;entryDx=0;entryDy=0;" edge="1" parent="1" source="LJSA0B60iwPBgxlD1cPa-103" target="LJSA0B60iwPBgxlD1cPa-85">
          <mxGeometry relative="1" as="geometry">
            <mxPoint x="115" y="269.31" as="sourcePoint" />
            <mxPoint x="275" y="269.31" as="targetPoint" />
          </mxGeometry>
        </mxCell>
        <mxCell id="LJSA0B60iwPBgxlD1cPa-107" value="" style="endArrow=none;html=1;rounded=0;exitX=1;exitY=1;exitDx=0;exitDy=0;entryX=0.25;entryY=0;entryDx=0;entryDy=0;" edge="1" parent="1" source="LJSA0B60iwPBgxlD1cPa-101" target="LJSA0B60iwPBgxlD1cPa-85">
          <mxGeometry relative="1" as="geometry">
            <mxPoint x="30" y="170" as="sourcePoint" />
            <mxPoint x="190" y="170" as="targetPoint" />
          </mxGeometry>
        </mxCell>
      </root>
    </mxGraphModel>
  </diagram>
</mxfile>
